<svg width="597" height="513" viewBox="0 0 597 513" fill="none" xmlns="http://www.w3.org/2000/svg">
<g clip-path="url(#clip0)">
<rect width="597" height="513" fill="white"/>
<line x1="-9.00081" y1="388.5" x2="608.999" y2="387.498" stroke="black"/>
<line x1="3.64645" y1="486.646" x2="77.6464" y2="412.646" stroke="black"/>
<line x1="127.646" y1="486.646" x2="201.646" y2="412.646" stroke="black"/>
<line x1="251.646" y1="486.646" x2="325.646" y2="412.646" stroke="black"/>
<line x1="375.646" y1="486.646" x2="449.646" y2="412.646" stroke="black"/>
<line x1="499.646" y1="486.646" x2="573.646" y2="412.646" stroke="black"/>
<line x1="86.8109" y1="388.537" x2="221.25" y2="333.598" stroke="black"/>
<line x1="52.8099" y1="388.538" x2="215.81" y2="321.538" stroke="black"/>
<line x1="221.01" y1="334.159" x2="215.684" y2="321.127" stroke="black"/>
<line x1="162.5" y1="343" x2="162.5" y2="333" stroke="black"/>
<line x1="153.5" y1="347" x2="153.5" y2="333" stroke="black"/>
<line x1="162.5" y1="343" x2="162.5" y2="333" stroke="black"/>
<line x1="153.5" y1="347" x2="153.5" y2="333" stroke="black"/>
<path d="M163 333H153" stroke="black"/>
<line x1="137.5" y1="354" x2="137.5" y2="344" stroke="black"/>
<line x1="128.5" y1="358" x2="128.5" y2="344" stroke="black"/>
<path d="M138 344H128" stroke="black"/>
<line x1="187.5" y1="333" x2="187.5" y2="323" stroke="black"/>
<line x1="178.5" y1="337" x2="178.5" y2="323" stroke="black"/>
<path d="M188 323H178" stroke="black"/>
<line x1="187.5" y1="388" x2="187.5" y2="347" stroke="black"/>
<line x1="187.573" y1="387.739" x2="220.573" y2="333.739" stroke="black"/>
<line x1="113" y1="82.5" x2="204" y2="82.5" stroke="black"/>
<line x1="113.5" y1="82" x2="113.5" y2="107" stroke="black"/>
<line x1="113" y1="106.5" x2="148" y2="106.5" stroke="black"/>
<line x1="148.5" y1="106" x2="148.5" y2="115" stroke="black"/>
<line x1="149" y1="114.5" x2="170" y2="114.5" stroke="black"/>
<line x1="169.5" y1="114" x2="169.5" y2="107" stroke="black"/>
<line x1="169" y1="106.5" x2="204" y2="106.5" stroke="black"/>
<line x1="204.5" y1="82" x2="204.5" y2="107" stroke="black"/>
<path d="M159.5 82V61" stroke="black"/>
<path d="M156.76 82.0027V56.9977" stroke="black"/>
<line x1="159" y1="60.5" x2="292" y2="60.5" stroke="black"/>
<line x1="157" y1="57.5" x2="296" y2="57.5" stroke="black"/>
<line x1="292.5" y1="60" x2="292.5" y2="388" stroke="black"/>
<line x1="295.5" y1="58" x2="295.5" y2="388" stroke="black"/>
</g>
<defs>
<clipPath id="clip0">
<rect width="597" height="513" fill="white"/>
</clipPath>
</defs>
</svg>
